<svg width="208" height="47" xmlns="http://www.w3.org/2000/svg"><g fill="none" fill-rule="evenodd"><path d="M.5 37.01c-.3 0-.5-.1-.5-.4V.43c0-.3.2-.4.5-.4h8.91c.3 0 .6.1.6.4v2.2c0 .3-.2.4-.5.4h-4.9c-.5 0-.6.2-.6.5V33.6c0 .3.2.4.6.4h4.8c.3 0 .6.1.6.4v2.12c-.1.3-.2.5-.6.5H.5z" fill="#000"/><path d="M24.03 26.5v6.3c0 4.7-4.03 4.2-9.53 4.2h-.9c-.3 0-.6-.1-.6-.4v-2.2c0-.3.2-.4.5-.4h.7c3.3 0 5.8.7 5.8-1.9v-6c0-1.9 1.3-4.4 3.9-5.4.2 0 .2-.1.2-.2s-.1-.2-.2-.3c-2.4-1.1-3.9-2.8-3.9-5V8.3C20 5.7 17.52 3 14.22 3h-.7c-.3 0-.5-.1-.5-.4V.4c0-.3.2-.4.6-.4h.9c5.6 0 9.53 4 9.53 8.7v5.7c0 2.2 1.41 3.4 3.71 4.2.9.3 1.3.3 1.3 1v1.8c0 .4-.4.6-1.5.9-2.3.7-3.52 2-3.52 4.2z" fill="#38A1CE"/><path d="M17.01 16.1c0 .5-.5.9-1 .9h-2c-.6 0-1-.4-1-.9V13.9c0-.5.5-.9 1-.9h2c.6 0 1 .4 1 .9v2.21zM43.87 36.96c-3.3 0-5.8-.8-8-2.9l1.9-2c1.5 1.7 3.6 2.3 6 2.3 3.2 0 5.2-1.2 5.2-3.6 0-1.8-1-2.7-3.2-3l-3.2-.3c-3.8-.3-5.8-2.1-5.8-5.4 0-3.7 3-5.9 7.1-5.9 2.8 0 5.2.7 7 2.2l-1.9 1.9a8.26 8.26 0 0 0-5.2-1.6c-2.8 0-4.3 1.3-4.3 3.3 0 1.7.9 2.7 3.4 3l3.1.3c3.4.3 5.7 1.7 5.7 5.5.1 3.9-3.1 6.2-7.8 6.2M67.6 36.69v-2.3a6.73 6.73 0 0 1-5.4 2.6c-2.1 0-3.8-.7-5-1.9-1.4-1.4-2-3.3-2-5.7v-12.8H58v12.4c0 3.6 1.8 5.4 4.7 5.4 2.9 0 4.9-1.8 4.9-5.4v-12.4h2.8v20.2h-2.8v-.1zM88.65 35.22c-1 1.1-2.8 1.8-4.7 1.8-2.1 0-3.9-.5-5.5-2.6v11.4h-2.8v-29.3h2.8v2.4c1.6-2.1 3.4-2.6 5.5-2.6 2 0 3.7.7 4.7 1.8 2 2 2.4 5.4 2.4 8.6 0 3.1-.4 6.4-2.4 8.5m-5.3-16.3c-4.2 0-4.9 3.8-4.9 7.7 0 3.9.7 7.7 4.9 7.7s4.9-3.8 4.9-7.7c-.1-3.9-.7-7.7-4.9-7.7M96.9 27.42c0 4.4 2 7 5.7 7 2.2 0 3.6-.7 5.1-2.3l1.9 1.8c-2 2.1-3.8 3.1-7.1 3.1-5.1 0-8.5-3.2-8.5-10.3 0-6.5 3-10.3 8-10.3s8 3.8 8 9.8v1.2H96.9zm9.7-5.6c-.8-1.8-2.5-3-4.5-3-2.1 0-3.8 1.2-4.5 3a9.9 9.9 0 0 0-.6 3.4h10.1c0-1.7-.1-2.3-.5-3.4zM124.86 20.39c-1.1-1.1-1.9-1.5-3.4-1.5-2.8 0-4.7 2.3-4.7 5.4v12.4h-2.7v-20.1h2.8v2.5c1.1-1.8 3.2-2.8 5.5-2.8 1.9 0 3.3.5 4.7 1.9l-2.2 2.2zM141.88 37.05v-1.9a6.95 6.95 0 0 1-5.1 2.1c-2.1 0-3.7-.7-4.9-1.8-1.7-1.7-2.1-3.6-2.1-5.8v-13.2h5.1v12.4c0 2.8 1.8 3.8 3.4 3.8 1.6 0 3.4-.9 3.4-3.8v-12.4h5.1v20.6h-4.9zM159.12 37.34c-3.2 0-6.2-.4-8.8-3l3.4-3.4c1.7 1.7 3.9 1.9 5.5 1.9 1.8 0 3.6-.6 3.6-2.1 0-1-.6-1.7-2.2-1.9l-3.2-.3c-3.7-.4-6-2-6-5.8 0-4.3 3.8-6.6 7.9-6.6 3.2 0 5.9.6 7.9 2.4l-3.2 3.2c-1.2-1.1-3-1.4-4.8-1.4-2.1 0-2.9.9-2.9 2 0 .7.3 1.6 2.1 1.8l3.2.3c4.1.4 6.1 2.6 6.1 6 .1 4.7-3.7 6.9-8.6 6.9M176.02 28.36c0 2.6 1.6 4.6 4.5 4.6 2.2 0 3.4-.6 4.7-1.9l3.1 3c-2.1 2.1-4.1 3.2-7.8 3.2-4.9 0-9.5-2.2-9.5-10.5 0-6.7 3.6-10.5 9-10.5 5.7 0 9 4.2 9 9.8v2.3h-13zm7.3-5.7c-.6-1.2-1.7-2.1-3.4-2.1s-2.9.9-3.4 2.1c-.3.8-.4 1.3-.5 2.2h7.8c-.1-.9-.2-1.5-.5-2.2zM203.78 22.08c-.8-.8-1.5-1.2-2.7-1.2-1.6 0-3.3 1.2-3.3 3.8v12.4h-5.1v-20.6h5v2a7 7 0 0 1 5.2-2.2c2 0 3.4.5 4.9 1.9l-4 3.9z" fill="#000"/></g></svg>